<svg width="40" height="40" viewBox="0 0 40 40" fill="none" xmlns="http://www.w3.org/2000/svg">
<g clip-path="url(#clip0_2_17)">
<path d="M3.22634 0.109375C1.72634 0.476562 0.46071 1.74219 0.11696 3.22656C0.00758512 3.6875 -0.000227379 5.29688 0.0153976 16.8906L0.0388351 30.0391L0.234148 30.5469C0.49196 31.2109 0.937273 31.875 1.3904 32.2734C1.91384 32.7266 2.8904 33.1875 3.55446 33.2812C3.88259 33.3281 7.19509 33.3594 11.7654 33.3594H19.4373L20.5857 36.4609C21.492 38.8984 21.7888 39.6172 21.9685 39.7812L22.1873 40H29.242C35.1795 40 36.367 39.9766 36.781 39.8828C38.3357 39.5156 39.6248 38.1641 39.9216 36.6016C39.9841 36.2656 39.9998 32.5 39.9841 23.0469L39.9607 9.96094L39.7888 9.51562C39.2888 8.20312 38.3982 7.32812 37.0935 6.85938L36.6013 6.67969L28.4763 6.64062L20.3513 6.60156L19.281 3.47656C18.6951 1.75781 18.2107 0.34375 18.2029 0.328125C18.2029 0.320312 18.0857 0.242188 17.9529 0.15625C17.7029 0.0078125 17.5388 0 10.6638 0.0078125C5.27321 0.015625 3.53884 0.0390625 3.22634 0.109375ZM22.0076 16.5625C24.8045 24.75 27.1013 31.4922 27.1013 31.5469C27.1091 31.625 24.7576 31.6406 15.2966 31.625L3.47634 31.6016L3.09352 31.4141C2.5779 31.1562 2.1404 30.7031 1.88259 30.1641L1.67946 29.7266V16.6797V3.63281L1.88259 3.20312C2.14821 2.64844 2.42946 2.3125 2.87477 2.05469C3.57009 1.64062 3.46852 1.64844 10.4295 1.66406L16.906 1.67969L22.0076 16.5625ZM36.7498 8.52344C37.2966 8.72656 37.8357 9.24219 38.1091 9.82812L38.3201 10.2734V23.3203V36.3672L38.117 36.7969C37.8279 37.4219 37.4841 37.7734 36.8904 38.0625L36.367 38.3203L31.5232 38.3438C28.8591 38.3516 26.156 38.3516 25.5154 38.3438L24.3513 38.3203L26.7498 35.5859L29.1482 32.8516L29.117 32.4609C29.1013 32.2344 28.7732 31.1719 28.3513 29.9531L27.617 27.8359L27.8904 27.6094C28.0388 27.4844 28.406 27.1484 28.7107 26.8672L29.2498 26.3438L31.0623 28.125C32.6013 29.6406 32.9216 29.9219 33.1716 29.9688C33.7185 30.0703 34.1404 29.6953 34.1404 29.0938C34.1404 28.8359 34.0076 28.6875 32.2498 26.9609L30.3591 25.1016L30.8748 24.4062C32.1716 22.6641 33.3435 20.5547 33.8201 19.1016L34.0545 18.3984L35.0545 18.3594C36.0857 18.3203 36.3045 18.2578 36.5154 17.9531C36.6795 17.7266 36.6716 17.2734 36.5154 17.0391C36.2498 16.6562 36.0779 16.6406 32.9373 16.6406H30.0154L29.9841 16.0625C29.9607 15.5781 29.9295 15.4453 29.7732 15.2812C29.5154 15.0078 29.1091 14.9375 28.7888 15.1172C28.4529 15.2891 28.3591 15.5234 28.3591 16.1328V16.6406L26.2107 16.6562C25.031 16.6641 24.0076 16.6719 23.9295 16.6719C23.8279 16.6797 23.6326 16.1875 23.031 14.4141C22.6013 13.1641 21.9607 11.2969 21.6013 10.25L20.9529 8.35938H28.6404C36.2029 8.35938 36.3279 8.35938 36.7498 8.52344ZM32.1482 18.8828C31.6873 20.1016 30.7029 21.8516 29.742 23.1562L29.242 23.8359L28.8513 23.3828C28.2888 22.7344 27.7732 22.0078 27.492 21.4844C27.3591 21.2344 27.1716 21 27.0623 20.9453C26.4763 20.6797 25.8591 21.0312 25.8591 21.625C25.8591 22.1406 26.4763 23.1406 27.6716 24.5703L28.1248 25.1094L27.6404 25.6016C27.3748 25.875 27.117 26.0859 27.0779 26.0703C27.0388 26.0547 26.8513 25.6094 26.6716 25.0703C26.492 24.5391 25.906 22.8125 25.3591 21.2266L24.3826 18.3594H28.3591H32.3435L32.1482 18.8828ZM26.406 33.3984C26.406 33.4609 22.8982 37.4531 22.8279 37.4844C22.7732 37.5 21.2498 33.5625 21.2498 33.4141C21.2498 33.3828 22.4138 33.3594 23.8279 33.3594C25.2498 33.3594 26.406 33.375 26.406 33.3984Z" fill="black"/>
<path d="M11.1016 10.2891C10.8047 10.5938 6.60939 22.336 6.67971 22.6641C6.74221 22.9453 7.06252 23.2578 7.34377 23.3203C7.69533 23.3985 8.08596 23.1719 8.26564 22.7891C8.34377 22.6094 8.73439 21.5391 9.14064 20.4063L9.86721 18.3594H11.6719H13.4766L14.1719 20.336C15.1172 23.0078 15.1641 23.1016 15.5078 23.25C16.0391 23.4688 16.6406 23.086 16.6406 22.5391C16.6406 22.3985 15.6875 19.6172 14.5313 16.3594C12.875 11.7266 12.375 10.3907 12.2188 10.25C11.9219 9.99222 11.3828 10.0078 11.1016 10.2891ZM12.2656 14.9844C12.5781 15.8516 12.8125 16.586 12.7969 16.6094C12.7735 16.625 12.25 16.6328 11.625 16.625L10.4922 16.6016L10.8672 15.5469C11.6094 13.4922 11.6563 13.3516 11.6797 13.375C11.6953 13.3907 11.9531 14.1094 12.2656 14.9844Z" fill="black"/>
</g>
<defs>
<clipPath id="clip0_2_17">
<rect width="40" height="40" fill="white"/>
</clipPath>
</defs>
</svg>
