<svg width="250" height="120" viewBox="0 0 250 120" fill="none" xmlns="http://www.w3.org/2000/svg">
<g clip-path="url(#clip0_3_21)">
<path d="M198.529 1.30331C194.118 3.32579 191.622 7.14601 191.622 11.9101C191.667 22.0224 203.342 27.1011 211.185 20.4044C215.686 16.5842 215.998 8.44938 211.765 3.86511C208.779 0.674101 202.54 -0.539383 198.529 1.30331ZM206.551 3.5505C209.67 4.94376 212.121 8.62916 212.121 11.9101C212.121 15.1011 209.358 19.2808 206.462 20.5393C200.089 23.191 192.87 16.4494 194.697 9.52803C195.321 7.32579 197.906 4.17972 199.866 3.32579C201.738 2.47185 204.456 2.56174 206.551 3.5505Z" fill="black"/>
<path d="M200 6.15731L198.752 6.33709V12.1798V17.9775H200.089C201.426 17.9775 201.426 17.9326 201.426 15.5056C201.426 12.8539 201.693 12.6292 203.61 13.618C204.278 13.9326 204.857 14.8315 205.169 15.9551C205.615 17.5281 205.882 17.7528 207.13 17.8877C207.888 17.9775 208.556 17.8877 208.556 17.6629C208.556 16.6292 207.487 13.618 206.863 12.8989C206.239 12.1798 206.239 12.045 207.13 11.4157C208.556 10.427 208.467 7.91012 206.952 6.87641C205.793 6.11237 202.273 5.75282 200 6.15731ZM205.036 8.809C205.927 9.88765 204.991 10.9663 203.03 11.1461C201.471 11.2809 201.426 11.236 201.426 9.70788C201.426 8.17979 201.515 8.0899 202.941 8.0899C203.743 8.0899 204.679 8.4045 205.036 8.809Z" fill="black"/>
<path d="M90.0178 32.5842V53.0337H84.3583C72.1925 53.0337 66.1765 55.4607 62.9234 61.7528C61.8538 63.8202 61.7202 64.5393 61.7202 68.5393C61.7202 72.4045 61.8984 73.3483 62.8342 75.2809C64.2603 78.2472 67.246 81.1685 70.1426 82.5168C74.1979 84.3595 78.476 84.5393 120.767 84.4045L160.205 84.2696L160.339 63.9101L160.428 43.5955H165.909C175.089 43.5955 180.08 42.2921 183.779 39.0112C186.765 36.4045 188.146 33.3932 188.414 29.1685C188.948 19.8652 183.422 13.6629 173.574 12.5842C171.212 12.3146 153.075 12.1348 129.813 12.1348H90.0178V32.5842ZM176.738 16.4045C179.813 17.3034 182.308 19.3258 183.868 22.1123C184.982 24.1798 185.16 24.9438 185.16 28.0899C185.16 32.3146 184.18 34.5618 181.506 36.809C178.61 39.2359 175.045 40.0449 166.31 40.3146C158.779 40.5843 158.601 40.5843 157.754 41.7078C156.907 42.7865 156.863 43.5955 156.863 61.8427V80.8989H143.048H129.234V48.3146V15.7303H151.872C170.499 15.7303 174.911 15.8651 176.738 16.4045Z" fill="black"/>
<path d="M0 107.191V120.045L6.81818 119.91L13.5918 119.775V118.202V116.629L8.60071 116.494L3.56506 116.36V105.393V94.382H1.78253H0V107.191Z" fill="black"/>
<path d="M23.0392 94.8315C19.2959 95.7753 15.7754 98.5618 13.9929 102.022C12.7451 104.36 12.8342 110.157 14.1266 112.629C18.2264 120.404 29.0553 122.157 35.3832 116.045C37.8788 113.618 39.2157 110.517 39.1711 107.191C39.1266 104 38.5918 102.337 36.6756 99.6404C34.1355 96 27.5847 93.7079 23.0392 94.8315ZM31.7291 99.5955C39.3494 104.989 35.5615 116.404 26.1141 116.404C22.9947 116.404 19.697 114.742 18.0036 112.27C16.8895 110.652 16.7112 110.022 16.7112 107.146C16.7112 104.27 16.8449 103.685 18.0481 101.978C18.8057 100.944 20.2763 99.5955 21.3904 99.0112C23.0838 98.0674 23.8859 97.9326 26.6043 98.0674C29.3226 98.2022 30.0802 98.427 31.7291 99.5955Z" fill="black"/>
<path d="M43.2264 107.236V120.045L44.9198 119.91L46.5686 119.775L46.7023 115.146L46.836 110.562H48.262C49.0642 110.562 49.9554 110.742 50.3119 110.966C50.6684 111.191 52.0945 113.258 53.4759 115.595C55.9269 119.73 56.016 119.775 57.8431 119.91C58.8681 120 59.7148 119.91 59.7148 119.73C59.7148 119.595 58.5116 117.438 57.041 114.966C55.5704 112.539 54.3672 110.427 54.3672 110.337C54.3672 110.202 54.6791 110.112 55.0357 110.112C56.016 110.112 58.8681 107.371 59.5365 105.753C60.8734 102.562 60.0267 99.146 57.3529 96.764C55.2139 94.8764 53.2977 94.382 47.8164 94.382H43.2264V107.236ZM55.2139 99.2809C56.328 100.36 56.5954 100.944 56.5954 102.472C56.5954 104 56.328 104.629 55.0802 105.888C53.6096 107.371 53.4314 107.416 50.1783 107.416H46.7914V102.697V97.9775H50.3119C53.5651 97.9775 53.9216 98.0674 55.2139 99.2809Z" fill="black"/>
<path d="M71.6578 95.3708C70.7665 96.1798 69.7861 98.8315 67.1123 107.551C65.2407 113.663 63.5918 118.966 63.4581 119.326C63.2353 119.865 63.5918 120 64.9733 120H66.7558L67.959 116.404L69.1622 112.764L73.6631 112.899L78.2086 113.034L79.3227 116.404C80.4368 119.73 80.4368 119.775 82.1302 119.91C83.0214 120 83.779 119.865 83.779 119.596C83.779 118.607 76.5152 95.9101 76.025 95.4157C75.7576 95.1011 74.9109 94.7416 74.1533 94.5618C73.0838 94.382 72.549 94.5169 71.6578 95.3708ZM75.5348 104.225C76.3815 107.011 77.0945 109.393 77.0945 109.483C77.0945 109.573 75.5794 109.663 73.7523 109.663C71.6132 109.663 70.41 109.483 70.41 109.169C70.41 108.629 73.0838 99.7753 73.3958 99.191C73.7523 98.6067 73.8414 98.8764 75.5348 104.225Z" fill="black"/>
<path d="M104.724 107.236V120.045L106.417 119.91L108.066 119.775L108.2 115.101L108.333 110.427L110.428 110.697C115.107 111.236 119.029 109.483 120.766 106.067C122.415 102.786 121.702 99.2809 118.85 96.764C116.711 94.8764 114.795 94.382 109.314 94.382H104.724V107.236ZM115.553 98.4719C117.157 99.3258 118.093 100.809 118.093 102.607C118.093 104 117.781 104.674 116.578 105.888C115.107 107.371 114.929 107.416 111.676 107.416H108.289V102.697V97.9775H111.453C113.191 97.9775 115.018 98.2022 115.553 98.4719Z" fill="black"/>
<path d="M131.194 94.8315C130.615 95.0562 129.902 96.0449 129.501 97.1685C128.52 99.7753 122.549 119.146 122.549 119.64C122.549 119.865 123.307 120 124.242 119.91C125.891 119.775 125.891 119.73 127.005 116.404L128.164 113.034L132.665 112.899L137.166 112.764L138.369 116.404L139.572 120H141.355C142.602 120 143.093 119.82 142.914 119.416C142.825 119.146 141.176 113.798 139.26 107.64C135.25 94.5169 134.581 93.4382 131.194 94.8315ZM134.715 104.584L136.275 109.663H132.709C129.234 109.663 129.189 109.618 129.456 108.629C130.838 103.82 132.576 98.9663 132.843 99.236C133.021 99.4157 133.868 101.843 134.715 104.584Z" fill="black"/>
<path d="M143.226 95.146C146.212 105.393 150.446 118.202 151.07 118.831C152.139 119.955 154.456 119.955 155.526 118.831C156.15 118.202 163.547 95.8202 163.547 94.5618C163.547 94.4719 162.745 94.382 161.809 94.382H160.071L158.467 99.5505C157.576 102.382 156.15 107.056 155.258 109.888C154.367 112.719 153.521 115.056 153.298 115.056C153.119 115.056 152.317 112.989 151.56 110.472C150.758 107.91 149.287 103.281 148.307 100.09L146.524 94.382H144.742C143.271 94.382 143.048 94.5168 143.226 95.146Z" fill="black"/>
<path d="M168.538 107.056L168.672 119.775L175.49 119.91L182.264 120.045V118.202V116.404H177.139H172.014V105.393V94.382H170.232H168.449L168.538 107.056Z" fill="black"/>
<path d="M191.488 94.8314C189.216 95.4157 187.522 96.3595 185.561 98.0674C181.506 101.663 180.392 108.045 182.932 112.764C184.581 115.775 187.077 117.933 190.018 118.921C196.613 121.168 203.743 118.382 206.595 112.494C209.581 106.382 206.996 99.0112 200.847 95.955C198.217 94.6966 194.073 94.2022 191.488 94.8314ZM198.975 98.8314C204.278 101.258 206.061 107.91 202.629 112.449C198.084 118.427 188.859 117.528 185.784 110.786C183.734 106.382 185.784 101.258 190.508 98.7415C192.38 97.7528 196.747 97.7977 198.975 98.8314Z" fill="black"/>
<path d="M209.002 94.8764C209.002 95.191 210.517 100.315 212.389 106.247C214.216 112.225 215.865 117.438 215.954 117.888C216.488 119.73 220.232 120.404 221.479 118.831C221.791 118.517 223.663 112.944 225.668 106.427L229.367 94.6067L227.807 94.4719C226.961 94.382 226.114 94.4719 225.936 94.6966C225.758 94.8764 224.242 99.4157 222.594 104.719C220.945 110.022 219.474 114.652 219.251 115.011C219.029 115.416 218.182 113.213 216.845 108.944C212.077 93.6179 212.478 94.6067 210.651 94.4719C209.581 94.382 209.002 94.5168 209.002 94.8764Z" fill="black"/>
<path d="M238.102 94.9213C237.567 95.191 236.809 96.2247 236.408 97.2584C235.472 99.8202 229.501 119.191 229.501 119.685C229.501 119.865 230.258 120 231.194 119.91C232.843 119.775 232.843 119.73 233.957 116.404L235.116 113.034L239.617 112.899L244.118 112.764L245.321 116.404L246.524 120H248.307C249.554 120 250.045 119.82 249.866 119.416C249.777 119.146 248.128 113.798 246.212 107.64C242.201 94.4719 241.444 93.3034 238.102 94.9213ZM241.667 104.584L243.226 109.663H239.661C236.988 109.663 236.141 109.528 236.275 109.079C236.408 108.809 237.166 106.382 237.968 103.685C238.77 101.034 239.617 99.0112 239.795 99.191C239.973 99.4157 240.82 101.843 241.667 104.584Z" fill="black"/>
</g>
<defs>
<clipPath id="clip0_3_21">
<rect width="250" height="120" fill="white"/>
</clipPath>
</defs>
</svg>
